<?xml version="1.0" standalone="no"?>
<!DOCTYPE svg PUBLIC "-//W3C//DTD SVG 20010904//EN"
 "http://www.w3.org/TR/2001/REC-SVG-20010904/DTD/svg10.dtd">
<svg version="1.0" xmlns="http://www.w3.org/2000/svg"
 width="500.000000pt" height="500.000000pt" viewBox="0 0 500.000000 500.000000"
 preserveAspectRatio="xMidYMid meet">
<metadata>
Created by potrace 1.14, written by Peter Selinger 2001-2017
</metadata>
<g transform="translate(0.000000,500.000000) scale(0.100000,-0.100000)"
fill="#000000" stroke="none">
<path d="M2407 4574 c-1 -1 -40 -4 -87 -8 -47 -3 -98 -8 -115 -11 -16 -3 -55
-10 -85 -15 -54 -10 -80 -17 -227 -59 -91 -26 -231 -88 -338 -149 -27 -16 -72
-42 -100 -57 -27 -15 -69 -42 -91 -59 -23 -17 -52 -38 -64 -46 -12 -8 -34 -25
-48 -38 -15 -13 -42 -35 -60 -50 -67 -52 -208 -206 -322 -351 -40 -52 -81
-103 -89 -113 -36 -41 -132 -228 -191 -370 -27 -63 -62 -190 -75 -268 -3 -19
-10 -53 -15 -75 -9 -39 -19 -116 -26 -200 -5 -52 -5 -351 0 -390 13 -113 20
-153 46 -260 16 -66 37 -145 47 -175 9 -30 17 -57 18 -60 3 -17 31 -70 37 -70
5 0 8 -8 8 -18 0 -34 154 -325 207 -392 7 -8 35 -44 62 -80 104 -135 237 -277
312 -333 45 -34 61 -46 123 -98 74 -61 163 -112 371 -217 146 -72 147 -73 230
-101 57 -19 236 -64 299 -75 172 -30 500 -25 676 10 19 3 45 8 57 9 11 2 30 6
41 9 11 4 30 9 43 11 51 10 209 58 269 83 54 22 225 116 305 168 148 96 351
270 456 390 72 83 208 277 269 386 39 67 70 126 70 130 0 4 11 31 24 60 13 29
32 80 41 113 10 33 22 66 27 73 6 6 8 12 5 12 -3 0 6 32 19 70 13 39 26 92 29
118 4 26 8 54 10 62 18 70 25 361 12 510 -7 86 -22 177 -52 305 -17 74 -72
250 -90 285 -7 14 -27 57 -45 95 -113 244 -370 578 -583 756 -16 13 -47 41
-70 61 -23 21 -48 38 -54 38 -7 0 -13 3 -13 8 0 14 -128 91 -285 171 -27 14
-53 30 -56 34 -3 5 -9 8 -13 8 -7 -1 -30 7 -76 27 -83 34 -316 100 -385 108
-22 3 -47 7 -55 9 -37 11 -393 28 -403 19z m294 -178 c55 -6 174 -23 214 -31
11 -2 36 -7 55 -10 114 -22 471 -174 540 -230 8 -6 44 -29 79 -50 120 -72 301
-265 446 -475 131 -191 223 -354 245 -435 7 -27 16 -54 20 -60 23 -34 98 -310
113 -415 27 -186 28 -345 3 -474 -30 -153 -78 -323 -125 -441 -43 -106 -78
-168 -199 -355 -165 -252 -406 -478 -657 -615 -73 -40 -238 -112 -275 -120 -8
-2 -35 -11 -60 -20 -55 -19 -197 -51 -265 -59 -27 -3 -75 -9 -105 -12 -121
-15 -359 -8 -475 12 -49 9 -88 15 -115 18 -14 2 -35 6 -47 10 -12 4 -31 9 -43
11 -70 13 -291 111 -385 170 -22 14 -47 28 -55 32 -8 4 -37 24 -65 45 -27 21
-53 38 -57 38 -8 0 -50 28 -131 88 -59 44 -179 159 -232 222 -17 20 -51 60
-76 90 -25 30 -72 100 -104 155 -31 55 -61 105 -65 110 -5 6 -33 60 -64 121
-48 97 -106 265 -132 384 -4 19 -8 37 -9 40 -2 5 -11 52 -21 105 -9 52 -17
167 -17 250 0 88 11 258 18 278 2 6 7 30 9 52 10 77 76 323 110 408 121 304
295 553 511 732 33 28 69 58 80 68 21 20 193 124 285 174 108 58 355 142 465
158 258 38 431 47 586 31z"/>
<path d="M2338 4324 c-3 -3 -27 -7 -54 -10 -27 -3 -85 -12 -129 -19 -44 -8
-98 -17 -119 -21 -59 -9 -252 -76 -326 -114 -78 -39 -172 -105 -163 -114 3 -3
0 -6 -9 -6 -8 0 -23 -10 -34 -22 -20 -23 -85 -81 -239 -214 -44 -38 -91 -82
-105 -99 -14 -16 -35 -41 -47 -55 -43 -49 -71 -86 -120 -160 -75 -113 -192
-352 -184 -377 1 -2 -10 -32 -23 -67 -22 -59 -64 -241 -64 -276 0 -8 -3 -46
-7 -85 -8 -72 -9 -253 -1 -315 2 -19 7 -62 11 -95 4 -33 8 -62 10 -65 2 -3 6
-26 10 -50 3 -25 18 -83 32 -130 15 -47 27 -87 28 -90 7 -34 41 -116 59 -142
23 -34 54 -91 77 -143 14 -32 35 -65 119 -190 119 -176 227 -295 267 -295 12
0 23 -5 23 -12 0 -6 3 -9 6 -5 10 9 63 -21 105 -60 20 -19 52 -45 69 -58 18
-13 41 -32 51 -42 28 -28 40 -37 103 -73 91 -54 156 -88 156 -82 0 3 8 -1 18
-9 34 -28 182 -94 182 -82 0 3 6 1 13 -5 26 -21 160 -47 297 -58 163 -13 422
-2 510 21 8 2 33 7 55 10 149 21 262 56 424 133 38 18 133 78 216 137 71 51
260 236 337 330 141 173 284 431 348 624 31 95 32 100 51 211 12 65 22 428 12
443 -3 4 -6 46 -8 93 -3 46 -6 88 -9 93 -3 4 -8 23 -11 42 -3 19 -11 52 -17
74 -6 22 -12 45 -13 50 -3 21 -18 71 -25 80 -4 6 -13 34 -21 63 -7 28 -16 52
-21 52 -4 0 -8 6 -8 14 0 19 -136 284 -152 296 -17 13 -122 182 -161 259 -23
46 -52 94 -63 107 -12 12 -19 25 -16 28 3 3 1 6 -5 6 -5 0 -43 31 -83 69 -92
87 -264 191 -460 279 -47 21 -207 71 -250 78 -14 3 -50 9 -80 15 -30 6 -71 13
-90 15 -19 3 -48 8 -65 11 -39 7 -401 14 -407 7z m400 -145 c248 -36 421 -100
687 -252 39 -22 79 -48 90 -58 76 -64 133 -122 146 -146 8 -15 54 -88 103
-162 48 -74 97 -150 109 -170 159 -278 223 -424 263 -603 2 -10 6 -28 9 -40
13 -59 16 -78 21 -148 15 -203 9 -266 -50 -482 -59 -218 -65 -231 -194 -470
-29 -54 -133 -209 -156 -235 -60 -64 -169 -172 -205 -202 -249 -204 -456 -296
-784 -347 -58 -9 -344 -12 -394 -4 -27 5 -74 11 -103 14 -52 6 -120 21 -150
33 -18 8 -17 7 -60 17 -57 14 -208 83 -313 144 -143 83 -157 92 -224 145 -34
26 -64 47 -68 47 -7 0 -73 58 -141 125 -62 61 -148 178 -191 259 -151 282
-240 504 -257 641 -3 22 -9 60 -14 85 -13 71 -6 301 13 398 2 11 6 35 9 53 16
97 28 144 56 229 29 89 72 194 87 211 7 8 13 19 13 23 0 7 68 112 89 138 6 7
32 38 59 68 27 30 63 71 80 90 75 85 191 199 232 229 25 17 68 54 95 80 54 52
158 127 225 161 39 20 197 75 243 84 47 10 69 15 85 20 16 5 61 12 133 21 17
2 33 5 35 7 8 9 363 6 422 -3z"/>
<path d="M2276 4103 c-4 -4 -19 -8 -34 -9 -15 -1 -27 -2 -27 -4 0 -1 -11 -3
-25 -5 -14 -2 -36 -6 -50 -9 -14 -3 -47 -11 -75 -17 -27 -6 -66 -18 -85 -27
-19 -9 -44 -17 -54 -19 -11 -2 -24 -7 -30 -11 -6 -5 -24 -9 -41 -10 -16 -1
-32 -7 -33 -12 -2 -6 -8 -8 -13 -4 -5 3 -9 0 -9 -6 0 -6 -4 -8 -10 -5 -5 3
-10 1 -10 -5 0 -6 -5 -8 -10 -5 -6 3 -13 -1 -16 -10 -4 -9 -13 -14 -20 -11 -7
3 -16 -4 -19 -15 -4 -10 -11 -16 -17 -13 -6 4 -8 -1 -3 -16 5 -15 3 -20 -3
-16 -6 3 -13 3 -16 -2 -2 -4 9 -8 25 -7 16 0 29 3 29 7 0 4 9 5 20 3 11 -2 20
0 20 6 0 5 6 9 13 9 6 0 25 7 41 15 16 9 31 13 33 11 3 -3 19 3 36 13 26 15
95 42 117 46 28 6 98 19 110 20 8 2 35 5 60 9 25 3 59 7 75 8 17 1 36 6 43 11
8 6 12 5 12 -2 0 -8 8 -10 19 -6 42 13 62 14 55 3 -5 -8 -1 -9 12 -4 35 14 51
14 51 1 0 -8 -8 -12 -20 -9 -11 2 -28 -1 -38 -7 -13 -7 -19 -6 -19 1 0 8 -6 8
-20 0 -10 -6 -43 -12 -72 -15 -29 -3 -69 -7 -88 -10 -19 -3 -53 -7 -75 -10
-22 -2 -51 -7 -65 -11 -14 -3 -33 -6 -43 -6 -10 1 -15 -4 -11 -10 4 -6 3 -8
-3 -5 -5 3 -31 -5 -58 -20 -27 -14 -53 -26 -59 -28 -6 -1 -27 -9 -46 -17 -39
-17 -66 -27 -78 -29 -15 -2 -68 -35 -102 -64 -33 -28 -150 -145 -378 -379 -94
-97 -199 -243 -224 -313 -7 -18 -15 -33 -19 -33 -6 0 -20 -32 -29 -65 -1 -5
-6 -20 -11 -33 -5 -13 -11 -35 -14 -50 -3 -15 -7 -38 -10 -52 -3 -14 -8 -38
-12 -55 -13 -70 -7 -375 10 -450 2 -11 8 -42 12 -70 11 -77 72 -272 109 -350
19 -38 47 -99 62 -135 16 -36 32 -66 36 -68 4 -2 8 -8 8 -14 0 -25 121 -180
205 -261 105 -103 259 -217 291 -217 8 0 14 -4 14 -9 0 -12 55 -44 200 -116
63 -32 118 -62 121 -67 3 -5 10 -10 15 -10 5 0 14 -2 19 -4 84 -28 177 -55
204 -59 19 -3 37 -7 40 -9 15 -9 158 -19 271 -19 142 -1 256 8 315 24 22 5 51
12 64 14 34 5 145 47 152 58 3 5 10 9 15 9 28 1 245 129 252 149 2 5 8 9 14 9
6 0 25 15 42 33 18 17 65 61 105 97 71 63 187 197 263 303 40 56 132 235 153
297 1 3 7 19 14 35 6 17 16 41 21 55 9 25 40 135 41 145 0 2 5 19 10 37 19 62
27 306 15 458 -7 105 -13 131 -48 245 -18 55 -32 102 -33 105 -8 27 -59 138
-114 250 -56 113 -73 143 -86 152 -7 5 -7 8 0 8 6 0 6 3 0 8 -17 11 -115 141
-115 150 0 21 -127 145 -207 203 -136 97 -234 143 -453 213 -178 57 -230 71
-345 92 -16 3 -41 8 -55 11 -40 9 -306 14 -314 6z m469 -216 c11 -3 67 -17
125 -31 168 -43 284 -94 413 -185 129 -90 172 -129 262 -241 28 -34 60 -74 73
-89 12 -14 25 -34 28 -44 3 -10 23 -44 43 -75 38 -58 121 -223 121 -241 0 -5
5 -22 12 -38 6 -15 12 -30 13 -33 1 -3 5 -12 8 -20 11 -25 38 -133 43 -167 2
-18 7 -50 10 -70 14 -96 19 -278 9 -323 -3 -14 -10 -47 -15 -75 -34 -171 -62
-257 -100 -297 -11 -12 -27 -43 -34 -69 -21 -68 -135 -244 -208 -319 -113
-117 -191 -176 -343 -263 -196 -112 -263 -135 -460 -155 -86 -8 -312 -8 -380
0 -236 31 -475 119 -655 242 -97 66 -340 309 -340 339 0 5 -11 23 -24 40 -13
18 -43 68 -66 112 -24 44 -48 87 -54 95 -30 38 -91 200 -111 294 -3 10 -9 33
-14 50 -5 17 -13 54 -17 81 -10 67 -11 340 -1 390 13 63 61 209 72 217 5 4 7
8 2 8 -10 0 16 51 43 81 11 13 31 37 45 54 27 32 28 20 5 -40 -7 -16 -14 -43
-17 -58 -2 -16 -18 -54 -34 -85 -16 -31 -34 -75 -40 -97 -20 -74 -36 -218 -33
-310 2 -89 4 -105 18 -175 12 -60 69 -235 79 -241 5 -3 8 -10 8 -15 -1 -15 23
-74 30 -74 4 0 10 -12 14 -27 3 -16 24 -55 45 -88 22 -33 49 -82 61 -110 12
-27 29 -55 38 -61 17 -13 44 -7 35 7 -3 5 -1 9 5 9 5 0 9 9 8 20 -1 11 -5 20
-9 20 -4 0 -8 9 -8 19 0 11 -6 26 -12 33 -7 7 -14 20 -16 28 -2 8 -9 18 -15
22 -7 4 -9 8 -4 8 4 0 1 13 -7 29 -9 16 -12 31 -9 35 4 3 1 6 -5 6 -7 0 -12 9
-12 19 0 11 -5 23 -10 26 -6 4 -8 10 -5 15 3 5 1 11 -5 15 -6 4 -8 10 -5 15 3
5 1 11 -5 15 -5 3 -10 17 -10 30 0 13 -4 26 -9 29 -5 3 -12 23 -17 43 -4 21
-8 40 -9 43 0 3 -5 23 -10 45 -4 22 -9 45 -11 50 -6 26 -16 85 -23 130 -10 80
-2 281 13 326 3 8 8 28 11 44 3 17 7 35 9 40 1 6 8 30 15 55 6 25 16 54 21 65
24 53 35 135 19 135 -7 0 -9 3 -6 6 3 4 2 15 -4 25 -5 11 -6 19 -1 19 4 0 14
16 21 36 7 20 22 45 32 55 10 10 17 19 14 19 -8 0 195 198 250 245 26 22 54
46 61 53 7 6 15 12 18 12 3 0 43 27 89 60 47 33 89 60 96 60 6 0 11 5 11 11 0
5 4 8 9 4 5 -3 15 1 23 8 12 12 37 25 63 33 43 14 193 57 205 59 8 2 15 4 15
5 0 1 9 3 20 5 11 1 38 6 60 9 22 4 62 9 90 12 27 3 51 7 52 8 5 5 267 -2 288
-7z"/>
<path d="M2370 3780 c-25 -4 -63 -10 -85 -13 -59 -9 -214 -62 -302 -103 -78
-37 -151 -84 -210 -137 -17 -16 -34 -29 -37 -29 -2 0 -26 -18 -53 -41 -144
-126 -246 -260 -283 -374 -13 -37 -25 -72 -29 -78 -3 -5 -6 -14 -8 -20 -7 -32
-13 -57 -28 -115 -9 -36 -20 -87 -23 -115 -11 -94 -4 -335 11 -375 4 -8 8 -38
11 -67 16 -151 81 -328 201 -547 65 -118 143 -209 230 -267 28 -18 52 -35 55
-38 5 -6 92 -54 140 -77 163 -79 368 -122 561 -119 167 4 276 17 394 47 44 11
85 21 90 22 6 1 15 4 20 7 6 3 31 12 57 19 26 7 53 19 59 26 6 8 17 14 23 14
30 0 204 136 286 223 30 32 84 89 120 126 67 70 75 82 141 209 36 69 63 144
75 208 3 15 7 31 9 34 23 38 23 375 0 474 -3 11 -7 35 -9 51 -9 69 -54 230
-84 295 -11 25 -33 74 -49 110 -91 199 -353 455 -544 530 -30 12 -67 27 -84
35 -80 34 -154 56 -278 79 -75 14 -304 18 -377 6z m305 -167 c49 -2 107 -10
113 -14 1 -1 5 -2 10 -3 35 -9 159 -51 167 -58 5 -4 15 -8 22 -8 7 0 61 -29
120 -64 95 -56 129 -84 217 -179 50 -53 107 -129 136 -183 18 -32 39 -68 46
-80 17 -26 94 -245 100 -287 20 -124 26 -375 12 -438 -16 -65 -55 -186 -81
-249 -22 -53 -40 -85 -78 -142 -11 -15 -19 -31 -19 -36 0 -10 -76 -91 -134
-141 -61 -54 -180 -136 -217 -151 -19 -7 -54 -22 -79 -33 -24 -11 -49 -20 -55
-22 -28 -6 -72 -17 -85 -22 -19 -7 -37 -11 -80 -17 -19 -3 -35 -5 -35 -6 0 -4
-113 -11 -190 -11 -168 -2 -292 24 -480 99 -53 21 -185 102 -185 113 0 5 -6 9
-13 9 -16 0 -121 110 -180 190 -26 36 -54 72 -60 80 -24 29 -86 157 -111 225
-23 66 -37 115 -53 203 -10 50 -9 306 1 362 22 127 103 332 170 432 20 29 120
142 161 182 111 107 324 206 501 231 27 4 58 9 69 12 11 2 62 6 114 8 52 3 96
7 99 10 3 2 10 1 16 -2 5 -4 33 -8 61 -10z"/>
</g>
</svg>
