<svg xmlns="http://www.w3.org/2000/svg" xmlns:xlink="http://www.w3.org/1999/xlink"
    viewBox="0 0 48 48" width="48" height="48" preserveAspectRatio="xMidYMid meet"
    style="width: 100%; height: 100%; transform: translate3d(0px, 0px, 0px); content-visibility: visible;">
    <defs>
        <clipPath id="__lottie_element_80">
            <rect width="48" height="48" x="0" y="0"></rect>
        </clipPath>
    </defs>
    <g clip-path="url(#__lottie_element_80)">
        <g transform="matrix(1,0,0,1,0,0)" opacity="1" style="display: block;">
            <g opacity="1" transform="matrix(1,0,0,1,24.139999389648438,26.660999298095703)">
                <path stroke-linecap="round" stroke-linejoin="round" fill-opacity="0"
                    stroke="rgb(255,255,255)" stroke-opacity="1" stroke-width="1"
                    d=" M7.474999904632568,-8.119999885559082 C12.414999961853027,-9.168999671936035 16.04599952697754,-8.967000007629395 16.725000381469727,-7.317999839782715 C17.79599952697754,-4.716000080108643 11.111000061035156,0.503000020980835 1.7940000295639038,4.336999893188477 C-7.521999835968018,8.170999526977539 -15.940999984741211,9.170000076293945 -17.011999130249023,6.567999839782715 C-17.795000076293945,4.664999961853027 -13.9399995803833,1.059000015258789 -8.428000450134277,-2.0789999961853027"></path>
            </g>
        </g>
        <g transform="matrix(1,0,0,1,0,0)" opacity="1" style="display: block;">
            <g opacity="1" transform="matrix(1,0,0,1,23.996000289916992,17.125999450683594)">
                <path fill="rgb(37,37,49)" fill-opacity="1"
                    d=" M0,-10.116999626159668 C0,-10.116999626159668 9.722000122070312,4.5970001220703125 9.722000122070312,4.5970001220703125 C9.722000122070312,4.5970001220703125 0,10.116999626159668 0,10.116999626159668 C0,10.116999626159668 -9.722000122070312,4.5970001220703125 -9.722000122070312,4.5970001220703125 C-9.722000122070312,4.5970001220703125 0,-10.116999626159668 0,-10.116999626159668z"></path>
                <path stroke-linecap="round" stroke-linejoin="round" fill-opacity="0"
                    stroke="rgb(83,109,254)" stroke-opacity="1" stroke-width="1"
                    d=" M0,-10.116999626159668 C0,-10.116999626159668 9.722000122070312,4.5970001220703125 9.722000122070312,4.5970001220703125 C9.722000122070312,4.5970001220703125 0,10.116999626159668 0,10.116999626159668 C0,10.116999626159668 -9.722000122070312,4.5970001220703125 -9.722000122070312,4.5970001220703125 C-9.722000122070312,4.5970001220703125 0,-10.116999626159668 0,-10.116999626159668z"></path>
            </g>
            <g opacity="1" transform="matrix(1,0,0,1,23.996000289916992,31.39299964904785)">
                <path fill="rgb(37,37,49)" fill-opacity="1"
                    d=" M-9.720999717712402,-9.670999526977539 C-9.720999717712402,-9.670999526977539 0.0010000000474974513,9.670999526977539 0.0010000000474974513,9.670999526977539 C0.0010000000474974513,9.670999526977539 9.720999717712402,-9.670999526977539 9.720999717712402,-9.670999526977539 C9.720999717712402,-9.670999526977539 0.0010000000474974513,-4.150000095367432 0.0010000000474974513,-4.150000095367432 C0.0010000000474974513,-4.150000095367432 -9.720999717712402,-9.670999526977539 -9.720999717712402,-9.670999526977539z"></path>
                <path stroke-linecap="round" stroke-linejoin="round" fill-opacity="0"
                    stroke="rgb(83,109,254)" stroke-opacity="1" stroke-width="1"
                    d=" M-9.720999717712402,-9.670999526977539 C-9.720999717712402,-9.670999526977539 0.0010000000474974513,9.670999526977539 0.0010000000474974513,9.670999526977539 C0.0010000000474974513,9.670999526977539 9.720999717712402,-9.670999526977539 9.720999717712402,-9.670999526977539 C9.720999717712402,-9.670999526977539 0.0010000000474974513,-4.150000095367432 0.0010000000474974513,-4.150000095367432 C0.0010000000474974513,-4.150000095367432 -9.720999717712402,-9.670999526977539 -9.720999717712402,-9.670999526977539z"></path>
            </g>
        </g>
        <g transform="matrix(1,0,0,1,0,0)" opacity="1" style="display: block;">
            <g opacity="1" transform="matrix(1,0,0,1,24.989999771118164,31.135000228881836)">
                <path stroke-linecap="round" stroke-linejoin="round" fill-opacity="0"
                    stroke="rgb(255,255,255)" stroke-opacity="1" stroke-width="1"
                    d=" M4.989999771118164,-1.965000033378601 C4.989999771118164,-1.965000033378601 4.980000019073486,-1.965000033378601 4.980000019073486,-1.965000033378601 C3.7100000381469727,-1.3350000381469727 2.359999895095825,-0.7149999737739563 0.949999988079071,-0.13500000536441803 C-1.100000023841858,0.7049999833106995 -3.0999999046325684,1.4149999618530273 -4.989999771118164,1.965000033378601"></path>
            </g>
        </g>
        <g transform="matrix(1,0,0,1,0,0)" opacity="1" style="display: block;">
            <g opacity="1" transform="matrix(1,0,0,1,9.003999710083008,8.996999740600586)">
                <path fill="rgb(37,37,49)" fill-opacity="1"
                    d=" M-2.061000108718872,0 C-2.061000108718872,-1.1380000114440918 -1.1380000114440918,-2.061000108718872 0,-2.061000108718872 C1.1380000114440918,-2.061000108718872 2.061000108718872,-1.1380000114440918 2.061000108718872,0 C2.061000108718872,1.1380000114440918 1.1380000114440918,2.061000108718872 0,2.061000108718872 C-1.1380000114440918,2.061000108718872 -2.061000108718872,1.1380000114440918 -2.061000108718872,0z"></path>
                <path stroke-linecap="round" stroke-linejoin="round" fill-opacity="0"
                    stroke="rgb(83,109,254)" stroke-opacity="1" stroke-width="1"
                    d=" M-2.061000108718872,0 C-2.061000108718872,-1.1380000114440918 -1.1380000114440918,-2.061000108718872 0,-2.061000108718872 C1.1380000114440918,-2.061000108718872 2.061000108718872,-1.1380000114440918 2.061000108718872,0 C2.061000108718872,1.1380000114440918 1.1380000114440918,2.061000108718872 0,2.061000108718872 C-1.1380000114440918,2.061000108718872 -2.061000108718872,1.1380000114440918 -2.061000108718872,0z"></path>
            </g>
            <g opacity="1" transform="matrix(1,0,0,1,38.99599838256836,38.99700164794922)">
                <path fill="rgb(37,37,49)" fill-opacity="1"
                    d=" M-2.061000108718872,0 C-2.061000108718872,-1.1380000114440918 -1.1380000114440918,-2.061000108718872 0,-2.061000108718872 C1.1380000114440918,-2.061000108718872 2.061000108718872,-1.1380000114440918 2.061000108718872,0 C2.061000108718872,1.1380000114440918 1.1380000114440918,2.061000108718872 0,2.061000108718872 C-1.1380000114440918,2.061000108718872 -2.061000108718872,1.1380000114440918 -2.061000108718872,0z"></path>
                <path stroke-linecap="round" stroke-linejoin="round" fill-opacity="0"
                    stroke="rgb(83,109,254)" stroke-opacity="1" stroke-width="1"
                    d=" M-2.061000108718872,0 C-2.061000108718872,-1.1380000114440918 -1.1380000114440918,-2.061000108718872 0,-2.061000108718872 C1.1380000114440918,-2.061000108718872 2.061000108718872,-1.1380000114440918 2.061000108718872,0 C2.061000108718872,1.1380000114440918 1.1380000114440918,2.061000108718872 0,2.061000108718872 C-1.1380000114440918,2.061000108718872 -2.061000108718872,1.1380000114440918 -2.061000108718872,0z"></path>
            </g>
        </g>
    </g>
</svg>