<svg width="334" height="100" viewBox="0 0 334 100" fill="url(#gradiant_:Rhb1r6:)" xmlns="http://www.w3.org/2000/svg" class="uzwxx13"><path fill-rule="evenodd" clip-rule="evenodd" d="M26.8424 81.5588C27.0453 81.7617 27.3834 81.8969 27.6538 81.8969C27.789 81.8969 27.9243 81.8293 28.0595 81.7617C28.4652 81.6264 28.7356 81.2207 28.7356 80.7475V54.6487L54.902 28.4148C55.0372 28.3472 55.1048 28.212 55.1724 28.0767C55.24 27.9415 55.24 27.7387 55.24 27.5358V27.4006L55.0372 26.9949L54.8343 26.7921L28.3976 0.355296C28.1271 0.0848434 27.789 -0.0503831 27.451 0.0172302H27.3157C27.1129 0.0172302 26.9777 0.0848434 26.8424 0.22007L26.7072 0.355296L0.270439 26.7921C0.270439 26.8259 0.253536 26.8428 0.236633 26.8597C0.219729 26.8766 0.202826 26.8935 0.202826 26.9273C0.163945 26.9662 0.147423 26.9827 0.140401 27.0026C0.135213 27.0173 0.135213 27.0338 0.135213 27.0625L0.0675996 27.1978V27.2654C0.0675996 27.2654 -1.36942e-05 27.4006 -1.36942e-05 27.4682V54.1754V54.3107V54.4459C0.0675996 54.6487 0.135213 54.8516 0.270439 54.9868L26.8424 81.5588ZM26.5044 28.7529V51.4709L3.78633 28.7529H26.5044ZM28.7356 28.7529H51.4537L28.7356 51.4709V28.7529ZM51.4537 26.5216H28.7356V3.80357L51.4537 26.5216ZM26.5044 26.5216H3.78633L26.5044 3.80357V26.5216ZM26.5044 55.3249V78.0429L3.78633 55.3249H26.5044ZM2.16361 30.3756L24.8817 53.0936H2.16361V30.3756ZM58.215 27.6711V81.7617H71.5348V64.7907H77.9581C93.5091 64.7907 99.0534 55.9334 99.0534 45.9266C99.0534 38.6244 95.4023 32.404 89.5199 29.6995C86.6126 28.4148 82.3529 27.6034 76.5382 27.6711H58.215ZM85.666 46.2647C85.666 50.8624 82.8938 52.7556 77.3495 52.7556H71.3996V39.909H76.8086C82.9614 39.909 85.666 41.8698 85.666 46.2647ZM98.9858 61.5453C98.9858 73.9861 108.519 83.1139 120.892 83.1139C133.13 83.1139 142.799 74.1214 142.799 61.4101C142.799 49.1045 133.13 39.9767 120.892 39.9767C108.722 39.9767 98.9858 48.9692 98.9858 61.5453ZM120.825 51.2681C126.504 51.2681 130.629 56.1362 130.629 61.5453C130.629 66.9544 126.64 71.7549 120.892 71.8225C115.416 71.8225 111.156 67.1572 111.156 61.5453C111.156 55.9334 115.483 51.2681 120.825 51.2681ZM146.383 81.8293V27.6711H158.553V81.8293H146.383ZM176.2 79.8009L169.777 95.4195H182.623L202.975 41.2613H190.128L182.353 64.7907H182.218L174.104 41.2613H161.122L176.2 79.8009ZM232.59 77.0963C230.764 80.9503 226.234 83.1815 221.231 83.1815C209.398 83.1815 200.811 74.0537 200.811 61.8157C200.811 49.3749 209.533 39.909 221.231 39.909C226.504 39.909 230.494 41.8698 232.522 45.0477H232.657V41.2613H244.828V77.5696C244.828 83.0463 244.084 87.2383 242.664 90.0105C239.757 95.6224 231.778 99.9496 221.569 99.9496C210.074 99.9496 202.637 93.4587 201.623 85.6832H215.619C217.039 88.6582 219.743 89.74 222.718 89.74C228.871 89.74 232.59 85.6832 232.59 78.3134V77.0963ZM232.657 61.7481C232.657 55.7982 228.6 51.2681 222.718 51.2681C217.309 51.2681 212.982 55.7982 212.982 61.3425C212.982 67.022 216.836 71.8225 222.718 71.8225C228.6 71.8225 232.657 67.5629 232.657 61.7481ZM248.276 61.5453C248.276 73.9861 257.809 83.1139 270.183 83.1139C282.421 83.1139 292.089 74.1214 292.089 61.4101C292.089 49.1045 282.421 39.9767 270.183 39.9767C258.012 39.9767 248.276 48.9692 248.276 61.5453ZM270.115 51.2681C275.794 51.2681 279.919 56.1362 279.919 61.5453C279.919 66.9544 275.93 71.7549 270.183 71.8225C264.706 71.8225 260.446 67.1572 260.446 61.5453C260.446 55.9334 264.773 51.2681 270.115 51.2681ZM321.095 81.8293V59.3141C321.095 53.8374 319.202 51.2681 314.74 51.2681C309.804 51.2681 307.776 53.9726 307.776 59.4493V81.8293H295.605V41.2613H306.964V45.5886H307.099C309.669 41.3965 313.252 39.909 318.12 39.909C325.423 39.909 333.198 44.0335 333.198 56.001V81.8969H321.095V81.8293Z" fill="inherit"></path><defs><linearGradient id="gradiant_:Rhb1r6:" x1="0%" y1="0%" x2="0%" y2="100%" gradientUnits="userSpaceOnUse"><stop stop-color="#E90C59"><animate attributeName="stop-color" values="#E90C59;#C305A4;#E90C59;" dur="20s" repeatCount="indefinite"></animate></stop><stop offset="100%" stop-color="#C305A4"><animate attributeName="stop-color" values="#C305A4;#E90C59;#C305A4;" dur="20s" repeatCount="indefinite"></animate></stop></linearGradient></defs></svg>